<svg xmlns="http://www.w3.org/2000/svg" version="1.1" xmlns:xlink="http://www.w3.org/1999/xlink" xmlns:svgjs="http://svgjs.dev/svgjs" width="2000" height="373" viewBox="0 0 2000 373"><g transform="matrix(1,0,0,1,-1.2121212121212466,0.7812234777491653)"><svg viewBox="0 0 396 74" data-background-color="#ffffff" preserveAspectRatio="xMidYMid meet" height="373" width="2000" xmlns="http://www.w3.org/2000/svg" xmlns:xlink="http://www.w3.org/1999/xlink"><g id="tight-bounds" transform="matrix(1,0,0,1,0.2400000000000091,-0.1549880358001019)"><svg viewBox="0 0 395.52 74.30997607160023" height="74.30997607160023" width="395.52"><g><svg viewBox="0 0 590.8864864494545 111.01527272727272" height="74.30997607160023" width="395.52"><g transform="matrix(1,0,0,1,195.36648644945456,0)"><svg viewBox="0 0 395.52 111.01527272727272" height="111.01527272727272" width="395.52"><g id="textblocktransform"><svg viewBox="0 0 395.52 111.01527272727272" height="111.01527272727272" width="395.52" id="textblock"><g><svg viewBox="0 0 395.52 111.01527272727272" height="111.01527272727272" width="395.52"><g transform="matrix(1,0,0,1,0,0)"><svg width="395.52" viewBox="0.7000000000000011 -33.5 264 71.05" height="111.01527272727272" data-palette-color="#7fdbff"><svg></svg><svg></svg><g class="wordmark-text-0" data-fill-palette-color="primary" id="text-0"><path d="M9.3 0h-8.6l7.65-33h8.6l-3.15 13.4 14.7-13.4h9.75l-14.85 13.85 7.5 19.15h-8.85l-5.3-13.7-5.4 4.85zM61.15 0h-26.2l7.65-33h25.7l-1.6 6.65h-17.05l-1.55 6.7h13.45l-1.45 6.25h-13.45l-1.55 6.75h17.6zM92.45 0h-26.2l7.65-33h25.7l-1.6 6.65h-17.05l-1.55 6.7h13.45l-1.45 6.25h-13.45l-1.55 6.75h17.6zM115.85 0h-18.3l7.65-33h15.35c3.067 0 5.473 0.683 7.22 2.05 1.753 1.367 2.63 3.25 2.63 5.65v0c0 1.667-0.35 3.123-1.05 4.37-0.7 1.253-1.633 2.263-2.8 3.03-1.167 0.767-2.483 1.283-3.95 1.55v0 0.05c1.8 0.167 3.267 0.833 4.4 2 1.133 1.167 1.7 2.617 1.7 4.35v0c0 2.233-0.543 4.083-1.63 5.55-1.08 1.467-2.58 2.567-4.5 3.3-1.913 0.733-4.153 1.1-6.72 1.1zM108.95-13.3l-1.7 7.25h7.15c1.767 0 3.14-0.35 4.12-1.05 0.987-0.7 1.48-1.733 1.48-3.1v0c0-0.667-0.15-1.233-0.45-1.7-0.3-0.467-0.75-0.817-1.35-1.05-0.6-0.233-1.35-0.35-2.25-0.35v0zM112.05-26.7l-1.7 7.25h6.1c1.1 0 2.04-0.183 2.82-0.55 0.787-0.367 1.38-0.867 1.78-1.5 0.4-0.633 0.6-1.367 0.6-2.2v0c0-1.067-0.36-1.833-1.08-2.3-0.713-0.467-1.653-0.7-2.82-0.7v0zM147.6 0.55v0c-2.333 0-4.533-0.31-6.6-0.93-2.067-0.613-3.923-1.52-5.57-2.72-1.653-1.2-3.063-2.717-4.23-4.55v0l5.05-4.95c0.8 1.4 1.81 2.59 3.03 3.57 1.213 0.987 2.537 1.72 3.97 2.2 1.433 0.487 2.867 0.73 4.3 0.73v0c1.033 0 1.873-0.15 2.52-0.45 0.653-0.3 1.147-0.7 1.48-1.2 0.333-0.5 0.5-1.033 0.5-1.6v0c0-0.733-0.267-1.31-0.8-1.73-0.533-0.413-1.333-0.787-2.4-1.12v0l-4.95-1.6c-1.5-0.5-2.86-1.16-4.08-1.98-1.213-0.813-2.17-1.82-2.87-3.02-0.7-1.2-1.05-2.583-1.05-4.15v0c0-2.233 0.577-4.133 1.73-5.7 1.147-1.567 2.73-2.767 4.75-3.6 2.013-0.833 4.32-1.25 6.92-1.25v0c3.433 0 6.333 0.607 8.7 1.82 2.367 1.22 4.317 2.93 5.85 5.13v0l-5.25 4.8c-0.7-1.167-1.543-2.127-2.53-2.88-0.98-0.747-2.053-1.303-3.22-1.67-1.167-0.367-2.35-0.55-3.55-0.55v0c-1 0-1.833 0.133-2.5 0.4-0.667 0.267-1.16 0.623-1.48 1.07-0.313 0.453-0.47 0.98-0.47 1.58v0c0 0.667 0.323 1.273 0.97 1.82 0.653 0.553 1.513 0.997 2.58 1.33v0l4.95 1.6c2.5 0.8 4.4 1.89 5.7 3.27 1.3 1.387 1.95 3.197 1.95 5.43v0c0 2.267-0.593 4.217-1.78 5.85-1.18 1.633-2.787 2.883-4.82 3.75-2.033 0.867-4.3 1.3-6.8 1.3z" fill="#7fdbff" fill-rule="nonzero" stroke="none" stroke-width="1" stroke-linecap="butt" stroke-linejoin="miter" stroke-miterlimit="10" stroke-dasharray="" stroke-dashoffset="0" font-family="none" font-weight="none" font-size="none" text-anchor="none" style="mix-blend-mode: normal" data-fill-palette-color="primary" opacity="1"></path><path transform="translate(0,37.05)" d="M8.3 0h-7.6l7.65-33h9.2l5.95 18.15 1.55 5.4h0.05l1.35-6.9 3.9-16.65h7.55l-7.65 33h-9.05l-6.15-17.85-1.55-5.4h-0.1l-1.25 6.6zM63.65 0h-26.2l7.65-33h25.7l-1.6 6.65h-17.05l-1.55 6.7h13.45l-1.45 6.25h-13.45l-1.55 6.75h17.6zM74-33h30l-1.55 6.65h-10.65l-6.1 26.35h-8.6l6.1-26.35h-10.75zM116.95 0h-9.55l-1.8-33h8.45l0.05 25.75 11.2-25.75h7.95l0.4 25.85 11.1-25.85h9.4l-17.1 33h-9.55l-0.25-16 0.45-8.3h-0.15l-3.4 8.3zM167.55 0.5v0c-2.733 0-5.217-0.567-7.45-1.7-2.233-1.133-4-2.793-5.3-4.98-1.3-2.18-1.95-4.803-1.95-7.87v0c0-2.733 0.393-5.283 1.18-7.65 0.78-2.367 1.927-4.433 3.44-6.2 1.52-1.767 3.387-3.14 5.6-4.12 2.22-0.987 4.747-1.48 7.58-1.48v0c2.767 0 5.25 0.573 7.45 1.72 2.2 1.153 3.95 2.803 5.25 4.95 1.3 2.153 1.95 4.78 1.95 7.88v0c0 2.733-0.39 5.273-1.17 7.62-0.787 2.353-1.937 4.42-3.45 6.2-1.52 1.787-3.38 3.17-5.58 4.15-2.2 0.987-4.717 1.48-7.55 1.48zM167.85-6.25v0c1.5 0 2.79-0.4 3.87-1.2 1.087-0.8 1.997-1.86 2.73-3.18 0.733-1.313 1.283-2.753 1.65-4.32 0.367-1.567 0.55-3.1 0.55-4.6v0c0-1.533-0.25-2.833-0.75-3.9-0.5-1.067-1.217-1.883-2.15-2.45-0.933-0.567-2.083-0.85-3.45-0.85v0c-1.467 0-2.75 0.4-3.85 1.2-1.1 0.8-2.017 1.857-2.75 3.17-0.733 1.32-1.283 2.757-1.65 4.31-0.367 1.547-0.55 3.087-0.55 4.62v0c0 1.533 0.25 2.833 0.75 3.9 0.5 1.067 1.223 1.883 2.17 2.45 0.953 0.567 2.097 0.85 3.43 0.85zM195.6 0h-8.45l7.65-33h14.15c3.4 0 6.09 0.823 8.07 2.47 1.987 1.653 2.98 3.963 2.98 6.93v0c0 2.4-0.56 4.433-1.68 6.1-1.113 1.667-2.62 2.957-4.52 3.87-1.9 0.92-4.05 1.43-6.45 1.53v0l-1.9 0.45h-7.9l1.4-6.1h6.55c1.3 0 2.39-0.217 3.27-0.65 0.887-0.433 1.563-1.043 2.03-1.83 0.467-0.78 0.7-1.637 0.7-2.57v0c0-1.3-0.433-2.243-1.3-2.83-0.867-0.58-1.983-0.87-3.35-0.87v0h-5.1zM217.2 0h-8.7l-5.4-14.3 7.8-1.2zM229.6 0h-8.6l7.65-33h8.6l-3.15 13.4 14.7-13.4h9.75l-14.85 13.85 7.5 19.15h-8.85l-5.3-13.7-5.4 4.85zM259.5 0.4v0c-1.4 0-2.523-0.327-3.37-0.98-0.853-0.647-1.28-1.587-1.28-2.82v0c0-1.567 0.467-2.827 1.4-3.78 0.933-0.947 2.2-1.42 3.8-1.42v0c1.4 0 2.523 0.333 3.37 1 0.853 0.667 1.28 1.617 1.28 2.85v0c0 1.567-0.46 2.817-1.38 3.75-0.913 0.933-2.187 1.4-3.82 1.4z" fill="#7fdbff" fill-rule="nonzero" stroke="none" stroke-width="1" stroke-linecap="butt" stroke-linejoin="miter" stroke-miterlimit="10" stroke-dasharray="" stroke-dashoffset="0" font-family="none" font-weight="none" font-size="none" text-anchor="none" style="mix-blend-mode: normal" data-fill-palette-color="primary" opacity="1"></path></g></svg></g></svg></g></svg></g></svg></g><g transform="matrix(1,0,0,1,0,4.15379619450318)"><svg viewBox="0 0 183.32352 102.70768033826636" height="102.70768033826636" width="183.32352"><g><svg xmlns:x="http://ns.adobe.com/Extensibility/1.0/" xmlns:i="http://ns.adobe.com/AdobeIllustrator/10.0/" xmlns:graph="http://ns.adobe.com/Graphs/1.0/" xmlns="http://www.w3.org/2000/svg" xmlns:xlink="http://www.w3.org/1999/xlink" version="1.1" x="0" y="0" viewBox="2.7 23.500000000000004 94.6 52.999999999999986" enable-background="new 0 0 100 100" xml:space="preserve" height="102.70768033826636" width="183.32352" class="icon-icon-0" data-fill-palette-color="accent" id="icon-0"><path d="M4.5 23.7h7.2c1 0 1.8 0.8 1.8 1.8v7.1c0 1-0.8 1.8-1.8 1.8H4.5c-1 0-1.8-0.8-1.8-1.8v-7.1C2.8 24.5 3.5 23.7 4.5 23.7zM32.7 23.7h-7.2c-1 0-1.8 0.8-1.8 1.8v7.1c0 1 0.8 1.8 1.8 1.8h7.2c1 0 1.8-0.8 1.8-1.8v-7.1C34.4 24.5 33.7 23.7 32.7 23.7zM53.6 23.7h-7.2c-1 0-1.8 0.8-1.8 1.8v7.1c0 1 0.8 1.8 1.8 1.8h7.2c1 0 1.8-0.8 1.8-1.8v-7.1C55.4 24.5 54.6 23.7 53.6 23.7zM67.3 34.2h7.2c1 0 1.8-0.8 1.8-1.8v-7.1c0-1-0.8-1.8-1.8-1.8h-7.2c-1 0-1.8 0.8-1.8 1.8v7.1C65.6 33.5 66.3 34.2 67.3 34.2zM95.5 23.7h-7.2c-1 0-1.8 0.8-1.8 1.8v7.1c0 1 0.8 1.8 1.8 1.8h7.2c1 0 1.8-0.8 1.8-1.8v-7.1C97.2 24.5 96.5 23.7 95.5 23.7zM22.1 44.6h-7.2c-1 0-1.8 0.8-1.8 1.8v7.1c0 1 0.8 1.8 1.8 1.8h7.2c1 0 1.8-0.8 1.8-1.8v-7.1C23.8 45.4 23.1 44.6 22.1 44.6zM43.1 44.6h-7.2c-1 0-1.8 0.8-1.8 1.8v7.1c0 1 0.8 1.8 1.8 1.8h7.2c1 0 1.8-0.8 1.8-1.8v-7.1C44.8 45.4 44 44.6 43.1 44.6zM64 44.6h-7.2c-1 0-1.8 0.8-1.8 1.8v7.1c0 1 0.8 1.8 1.8 1.8H64c1 0 1.8-0.8 1.8-1.8v-7.1C65.7 45.4 65 44.6 64 44.6zM77.7 55.2h7.2c1 0 1.8-0.8 1.8-1.8v-7.1c0-1-0.8-1.8-1.8-1.8h-7.2c-1 0-1.8 0.8-1.8 1.8v7.1C76 54.4 76.7 55.2 77.7 55.2zM2.8 74.6c0 1 0.8 1.8 1.8 1.8h7.2c1 0 1.8-0.8 1.8-1.8v-7.1c0-1-0.8-1.8-1.8-1.8H4.5c-1 0-1.8 0.8-1.8 1.8V74.6zM25.5 76.3h20.9 7.2 13.7 5 2.2c1 0 1.8-0.8 1.8-1.8v-7.1c0-1-0.8-1.8-1.8-1.8h-2.2-5H53.6h-7.2H25.5c-1 0-1.8 0.8-1.8 1.8v7.1C23.8 75.5 24.5 76.3 25.5 76.3zM95.5 65.8h-7.2c-1 0-1.8 0.8-1.8 1.8v7.1c0 1 0.8 1.8 1.8 1.8h7.2c1 0 1.8-0.8 1.8-1.8v-7.1C97.2 66.5 96.5 65.8 95.5 65.8z" fill="#d6bcfa" data-fill-palette-color="accent"></path></svg><g></g></g></svg></g></svg></g><defs></defs></svg><rect width="395.52" height="74.30997607160023" fill="none" stroke="none" visibility="hidden"></rect></g></svg></g></svg>